# xmcd
#
# Track frame offsets: 
#        150
#        17367
#        37434
#        60773
#        93265
#        108184
#        134886
#        162635
#        188336
#        205265
#        228888
#        251808
#        276690
#        305123
#
# Disc length: 4300 seconds
#
# Revision: 2
# Processed by: cddbd v1.5.2PL0 Copyright (c) Steve Scherf et al.
# Submitted via: ExactAudioCopy v1.0b3
#
DISCID=c810ca0e
DTITLE=Various Artist - Blues Paradise - Vol..8
DYEAR=1999
DGENRE=Blues
TTITLE0=Paul Woodcock - Hard Way
TTITLE1=Glenn Lane - Stay Gone
TTITLE2=Guitar Shorty - You Gave Me The Blues Body
TTITLE3=Jimmy D Lane - our O'Clock In The Morning
TTITLE4=Bluebirds - 3rd House On The Left
TTITLE5=The Micke Welch Band - Mole's Blues
TTITLE6=Bill Perry - Sneaking Around
TTITLE7=Smokey Wilson - The Man From Mars
TTITLE8=Tinsley Ellis - Dangling By A Thread
TTITLE9=Melvin Taylor - I'll Play The Blues For You
TTITLE10=Dr. Hector and The Groove Injectors - Safe In Your Arms Again
TTITLE11=Luther Allison - Living In The House Of Blues
TTITLE12=Pat Travers - The Rain
TTITLE13=Lefthand Freddy And The Aces - Keep My Cool
EXTD=YEAR: 1999
EXTT0=
EXTT1=
EXTT2=
EXTT3=
EXTT4=
EXTT5=
EXTT6=
EXTT7=
EXTT8=
EXTT9=
EXTT10=
EXTT11=
EXTT12=
EXTT13=
PLAYORDER=
